<svg id="new_design" data-name="new design" xmlns="http://www.w3.org/2000/svg" xmlns:xlink="http://www.w3.org/1999/xlink" viewBox="0 0 181.42 181.42"><defs><style>.cls-1{fill:#0d63a6;stroke:#0d63a6;stroke-miterlimit:10;}.cls-2{fill:url(#名称未設定グラデーション_53);}.cls-3{fill:url(#名称未設定グラデーション_53-2);}</style><linearGradient id="名称未設定グラデーション_53" x1="127.87" y1="113.65" x2="127.87" y2="13.57" gradientUnits="userSpaceOnUse"><stop offset="0.01" stop-color="#005ead"/><stop offset="0.22" stop-color="#0666b1"/><stop offset="0.53" stop-color="#157bbc"/><stop offset="0.9" stop-color="#2e9dce"/><stop offset="0.96" stop-color="#32a3d1"/></linearGradient><linearGradient id="名称未設定グラデーション_53-2" x1="78.94" y1="113.91" x2="78.94" y2="13.83" xlink:href="#名称未設定グラデーション_53"/></defs><path class="cls-1" d="M44,125c0-1,.45-1.48,1.35-1.48s1.35.49,1.35,1.48v16.1c0,3.24-.9,5.77-2.7,7.57a9.54,9.54,0,0,1-7,2.57,9.69,9.69,0,0,1-7.17-2.71c-1.35-1.35-2.21-3.6-2.56-6.76,0-1,.4-1.53,1.21-1.62a1.34,1.34,0,0,1,1.49,1.35q.4,4.06,2,5.68a6.91,6.91,0,0,0,5.14,1.9A6.61,6.61,0,0,0,42,147.33q2-2,2-6.36Z"/><path class="cls-1" d="M54.75,129.78a1.91,1.91,0,0,1-2.7,2.7,2,2,0,0,1,0-2.7,2,2,0,0,1,2.7,0Zm-2.57,7.28c0-.77.41-1.16,1.22-1.16s1.22.39,1.22,1.16v13c0,.78-.41,1.17-1.22,1.17s-1.22-.39-1.22-1.17Z"/><path class="cls-1" d="M60.66,137.09a1.22,1.22,0,0,1,2.44,0l.37,15a6,6,0,0,1-.87,3.47,13.67,13.67,0,0,1-2.29,3c-.55.45-2,1.72-2.81.89s.48-2.16,1.28-3.14a7.44,7.44,0,0,0,2-3.92c.2-1.34.12-6.66.12-6.66Zm2.57-7.31a2,2,0,1,1-1.35-.54A1.84,1.84,0,0,1,63.23,129.78Z"/><path class="cls-1" d="M88.45,123.53c1.54,0,2.3.63,2.3,1.89a1.69,1.69,0,0,1-.54,1.22l-18.8,22.45h18.8c.81,0,1.22.36,1.22,1.08s-.41,1.08-1.22,1.08H70.6a1.83,1.83,0,0,1-1.76-1.08,2.06,2.06,0,0,1,.27-2l18.8-22.45H70.33c-.81,0-1.22-.36-1.22-1.08s.41-1.08,1.22-1.08Z"/><path class="cls-1" d="M109.87,134.89a7.4,7.4,0,0,1,2.3,5.41,1.55,1.55,0,0,1-1.76,1.75H96.34a7,7,0,0,0,6.9,7.31,6.29,6.29,0,0,0,5-2,4.88,4.88,0,0,0,1.21-2.08,1.07,1.07,0,0,1,1.49-.54,1.16,1.16,0,0,1,.54,1.49,7.24,7.24,0,0,1-1.62,2.62c-1.35,1.62-3.52,2.43-6.49,2.43a9.51,9.51,0,0,1-7-2.71,9.68,9.68,0,0,1-2.7-7.16,8.72,8.72,0,0,1,2.7-6.36,9.38,9.38,0,0,1,6.9-2.7A9,9,0,0,1,109.87,134.89Zm-13.53,5.27h12.45a.59.59,0,0,0,.67-.68,4.79,4.79,0,0,0-1.62-3.38,6.42,6.42,0,0,0-4.73-1.89,6.72,6.72,0,0,0-4.87,2.16A7,7,0,0,0,96.34,140.16Z"/><path class="cls-1" d="M116.44,133.67c0-.9.4-1.35,1.22-1.35s1.21.45,1.21,1.35v2.57a10,10,0,0,1,14.88-1.08,9,9,0,0,1,2.7,6.62,9.17,9.17,0,0,1-2.7,6.76,10.22,10.22,0,0,1-14.88-1.08V158c0,.9-.4,1.35-1.21,1.35s-1.22-.45-1.22-1.35Zm2.43,5.54v5.14q2.56,5,7.58,5a7.15,7.15,0,0,0,5.27-2.17,8,8,0,0,0-.13-10.82,7,7,0,0,0-5.14-2.16Q121.71,134.21,118.87,139.21Z"/><path class="cls-1" d="M142.59,132.32v-3.79c0-.9.4-1.35,1.21-1.35s1.22.45,1.22,1.35v3.79l8.19-.19c.72,0,1.08.32,1.08,1s-.36.94-1.08.94l-8.19.19v11.36a3.21,3.21,0,0,0,1.41,2.89,30.76,30.76,0,0,0,3.63,2c.82.35,3,1.28,2.73,2s-2.4.07-4.11-.7a28.86,28.86,0,0,1-4.45-2.47,5.14,5.14,0,0,1-1.64-3.45V134.21h-3.25c-.72,0-1.08-.32-1.08-1s.36-.94,1.08-.94Z"/><circle class="cls-2" cx="127.87" cy="60.64" r="12.45"/><path class="cls-3" d="M93,69.52a19.15,19.15,0,0,0-11.62,3.91L69.59,65.31a12.3,12.3,0,0,0,.91-4.67,12.44,12.44,0,0,0-.77-4.28l14.59-9.72a11.31,11.31,0,1,0-.11-14.48l-7.5-3.72a7.59,7.59,0,0,0,.17-1.59,7.8,7.8,0,1,0-2.18,5.39l7.37,4.07a11.2,11.2,0,0,0-.43,3,10.76,10.76,0,0,0,.24,2.28L65.54,50.71a12.45,12.45,0,1,0-1.11,20.62L75.55,80.5A19.31,19.31,0,1,0,93,69.52Z"/></svg>